<?xml version="1.0" encoding="utf-8"?>
<!-- Generator: Adobe Illustrator 16.0.0, SVG Export Plug-In . SVG Version: 6.00 Build 0)  -->
<!DOCTYPE svg PUBLIC "-//W3C//DTD SVG 1.1//EN" "http://www.w3.org/Graphics/SVG/1.1/DTD/svg11.dtd">
<svg version="1.1" id="Layer_1" xmlns="http://www.w3.org/2000/svg" xmlns:xlink="http://www.w3.org/1999/xlink" x="0px" y="0px"
	 width="91.764px" height="89.5px" viewBox="0 0 91.764 89.5" enable-background="new 0 0 91.764 89.5" xml:space="preserve">
<path fill="#A3A5A8" d="M45.882,0C20.532,0,0,20.532,0,45.882c0,20.303,13.134,37.451,31.372,43.53
	c2.294,0.401,3.155-0.975,3.155-2.179c0-1.09-0.058-4.703-0.058-8.546c-11.528,2.122-14.51-2.81-15.428-5.391
	c-0.517-1.319-2.753-5.391-4.703-6.481c-1.605-0.86-3.9-2.982-0.057-3.04c3.613-0.058,6.194,3.326,7.054,4.703
	c4.129,6.939,10.725,4.99,13.363,3.785c0.401-2.982,1.606-4.989,2.925-6.136c-10.208-1.147-20.876-5.105-20.876-22.655
	c0-4.989,1.778-9.119,4.703-12.331c-0.459-1.147-2.064-5.85,0.459-12.159c0,0,3.842-1.204,12.618,4.703
	c3.67-1.032,7.57-1.548,11.47-1.548s7.8,0.516,11.471,1.548c8.774-5.965,12.617-4.703,12.617-4.703
	c2.523,6.309,0.917,11.012,0.459,12.159c2.925,3.212,4.703,7.284,4.703,12.331c0,17.607-10.725,21.507-20.934,22.655
	c1.663,1.434,3.097,4.187,3.097,8.488c0,6.137-0.058,11.069-0.058,12.618c0,1.204,0.861,2.638,3.155,2.179
	c18.123-6.079,31.257-23.285,31.257-43.53C91.764,20.532,71.231,0,45.882,0z"/>
</svg>
